<svg width="90" height="104" viewBox="0 0 90 104" fill="none" xmlns="http://www.w3.org/2000/svg">
<path d="M89.6875 62.3125C89.6955 57.6858 88.5305 53.1325 86.3015 49.0781C87.123 47.8755 87.5815 46.4621 87.6224 45.0063C87.6632 43.5505 87.2848 42.1136 86.5321 40.8668C85.7793 39.62 84.6841 38.6159 83.3768 37.974C82.0695 37.3321 80.6052 37.0795 79.1584 37.2463C79.7325 36.0844 80.1931 34.8641 80.5334 33.6025L83.0531 24.2284C84.4269 19.8621 84.1452 15.1428 82.2618 10.9709C80.3784 6.79898 77.0251 3.46636 72.8416 1.60878C68.6582 -0.248796 63.9373 -0.501328 59.5795 0.899359C55.2217 2.30005 51.5321 5.25592 49.2144 9.20313C47.0919 6.27734 43.9957 4.20429 40.4819 3.35641C36.9682 2.50853 33.2673 2.94139 30.0441 4.57723C26.8208 6.21307 24.2866 8.94467 22.8965 12.2813C21.5065 15.6179 21.3518 19.3408 22.4603 22.7813H14.585C0.97937 22.7813 -4.3625 40.4259 6.95718 47.9713L13.6259 52.4194L8.975 70.6656C8.39357 72.8674 8.32998 75.174 8.7892 77.4045C9.24842 79.635 10.218 81.7288 11.6219 83.5219C13.4563 85.8865 15.9595 87.6447 18.8062 88.5681V100.125C18.8062 101.037 19.1684 101.911 19.8131 102.556C20.4577 103.2 21.3321 103.562 22.2437 103.562H86.25C87.1617 103.562 88.036 103.2 88.6807 102.556C89.3253 101.911 89.6875 101.037 89.6875 100.125V62.3125ZM41.5625 89.2969H50.9125C52.9037 89.2972 54.8155 88.5157 56.2363 87.1206C57.6571 85.7255 58.4733 83.8284 58.5094 81.8375C58.5098 80.8188 58.309 79.81 57.9183 78.8692C57.5276 77.9283 56.9548 77.074 56.2329 76.3553C55.511 75.6365 54.6541 75.0675 53.7115 74.681C52.769 74.2945 51.7593 74.0981 50.7406 74.1031H41.5625V64.6191C41.5626 64.0533 41.423 63.4962 41.1562 62.9973C40.8893 62.4984 40.5035 62.0731 40.0328 61.7591L10.7694 42.2513C5.11124 38.4769 7.78218 29.6563 14.585 29.6563H24.3406L25.1656 32.7156C25.9521 35.6424 27.5511 38.2867 29.7775 40.3428C32.0039 42.3989 34.7669 43.7828 37.7469 44.3344C39.6845 44.6735 41.6713 44.6091 43.5829 44.1454C45.4945 43.6817 47.2899 42.8286 48.8569 41.6394C49.0459 41.6738 49.2419 41.6875 49.4412 41.6875H62.1875C63.5041 41.6875 64.7897 41.8113 66.0375 42.045L57.4094 45.3656C55.7604 46.0062 54.3867 47.2021 53.5252 48.7472C52.6636 50.2922 52.3683 52.0895 52.6901 53.829C53.012 55.5685 53.9307 57.1412 55.288 58.2757C56.6453 59.4102 58.356 60.0355 60.125 60.0437C61.0669 60.0437 61.9984 59.8684 62.875 59.5281L80.4716 52.7563C81.9669 55.6094 82.8125 58.8647 82.8125 62.3125V96.6875H41.5625V89.2969ZM53.9547 34.8125C55.1857 31.6424 55.3735 28.1623 54.4909 24.8781L52.9509 19.3059L53.7759 16.2328L53.7966 16.1503C54.1314 14.5932 54.7791 13.1204 55.7004 11.8212C56.6217 10.522 57.7974 9.42361 59.1562 8.59261C60.5149 7.76161 62.0283 7.21535 63.6045 6.987C65.1808 6.75864 66.787 6.85295 68.3257 7.2642C69.8643 7.67545 71.3034 8.39506 72.5555 9.37936C73.8077 10.3637 74.8468 11.5921 75.6097 12.9902C76.3727 14.3883 76.8436 15.9268 76.9939 17.5124C77.1442 19.0979 76.9707 20.6975 76.4841 22.2141L76.46 22.2897L73.8922 31.8288C73.4418 33.5142 72.6457 35.0875 71.5547 36.4488C68.5513 35.3625 65.3813 34.8088 62.1875 34.8125H53.9547Z" fill="#62B0F4"/>
</svg>
