<svg width="256" height="256" viewBox="0 0 256 256" fill="none" xmlns="http://www.w3.org/2000/svg">
<path fill-rule="evenodd" clip-rule="evenodd" d="M0 128C0 121.439 0.493625 114.993 1.44576 108.698C26.6706 135.392 62.0991 152 101.333 152V104C67.1912 104 37.4132 84.9556 21.6672 56.7208C44.6444 22.5115 83.6933 0 128 0C198.692 0 256 57.3076 256 128C256 135.644 255.33 143.132 254.045 150.408C228.188 121.902 190.851 104 149.333 104L149.333 152C185.38 152 216.654 172.435 232.203 202.353C208.987 234.83 170.966 256 128 256C57.3076 256 0 198.692 0 128Z" fill="white"/>
</svg>
