<svg width="73" height="73" viewBox="0 0 73 73" fill="none" xmlns="http://www.w3.org/2000/svg">
<path d="M66.1562 43.3437C66.1615 40.2733 65.3885 37.2516 63.9092 34.5609C64.4544 33.7628 64.7586 32.8249 64.7858 31.8587C64.8129 30.8926 64.5617 29.939 64.0622 29.1116C63.5627 28.2842 62.8358 27.6178 61.9682 27.1918C61.1007 26.7658 60.1289 26.5982 59.1688 26.7089C59.5497 25.9378 59.8554 25.128 60.0813 24.2908L61.7534 18.0698C62.6651 15.1721 62.4782 12.0402 61.2283 9.2716C59.9784 6.50296 57.753 4.29131 54.9767 3.05855C52.2004 1.8258 49.0675 1.65821 46.1755 2.58776C43.2835 3.5173 40.8349 5.47893 39.2968 8.09844C37.8883 6.15678 35.8335 4.78103 33.5016 4.21834C31.1698 3.65566 28.7137 3.94292 26.5747 5.02853C24.4356 6.11413 22.7538 7.92692 21.8313 10.1412C20.9089 12.3555 20.8062 14.8262 21.5418 17.1094H16.3155C7.28631 17.1094 3.74125 28.819 11.2534 33.8264L15.679 36.7783L12.5925 48.8872C12.2066 50.3484 12.1644 51.8791 12.4692 53.3593C12.7739 54.8396 13.4174 56.2291 14.3491 57.4191C15.5665 58.9883 17.2277 60.1551 19.1169 60.7679V68.4375C19.1169 69.0425 19.3572 69.6228 19.785 70.0506C20.2129 70.4784 20.7931 70.7187 21.3981 70.7187H63.875C64.48 70.7187 65.0603 70.4784 65.4881 70.0506C65.9159 69.6228 66.1562 69.0425 66.1562 68.4375V43.3437ZM34.2187 61.2516H40.4237C41.7452 61.2518 43.0139 60.7332 43.9568 59.8073C44.8997 58.8815 45.4414 57.6225 45.4653 56.3012C45.4656 55.6252 45.3323 54.9557 45.073 54.3314C44.8138 53.707 44.4337 53.14 43.9546 52.663C43.4755 52.186 42.9068 51.8085 42.2813 51.552C41.6558 51.2955 40.9857 51.1651 40.3097 51.1684H34.2187V44.8745C34.2188 44.499 34.1262 44.1293 33.9491 43.7982C33.772 43.4671 33.5159 43.1849 33.2036 42.9765L13.7833 30.0304C10.0284 27.5256 11.8009 21.6719 16.3155 21.6719H22.7897L23.3372 23.7022C23.8591 25.6445 24.9203 27.3994 26.3978 28.7639C27.8753 30.1284 29.7089 31.0468 31.6866 31.4128C32.9724 31.6378 34.2909 31.5951 35.5596 31.2874C36.8282 30.9797 38.0197 30.4135 39.0596 29.6243C39.185 29.6471 39.3151 29.6562 39.4474 29.6562H47.9062C48.78 29.6562 49.6332 29.7384 50.4612 29.8935L44.7353 32.0972C43.641 32.5223 42.7293 33.316 42.1576 34.3413C41.5859 35.3667 41.3899 36.5594 41.6035 37.7138C41.817 38.8682 42.4268 39.9119 43.3275 40.6648C44.2283 41.4177 45.3635 41.8327 46.5375 41.8381C47.1626 41.8381 47.7808 41.7218 48.3625 41.4959L60.0402 37.0019C61.0326 38.8953 61.5937 41.0557 61.5937 43.3437V66.1562H34.2187V61.2516ZM42.4426 25.0938C43.2596 22.99 43.3842 20.6804 42.7985 18.5009L41.7765 14.803L42.324 12.7636L42.3377 12.7088C42.5599 11.6755 42.9898 10.6981 43.6012 9.83589C44.2126 8.97371 44.9928 8.24476 45.8945 7.69328C46.7962 7.14179 47.8006 6.77928 48.8466 6.62773C49.8927 6.47619 50.9586 6.53878 51.9798 6.8117C53.0009 7.08462 53.9559 7.56218 54.7869 8.21539C55.6178 8.86861 56.3074 9.68386 56.8137 10.6117C57.32 11.5395 57.6325 12.5605 57.7323 13.6127C57.832 14.665 57.7169 15.7266 57.394 16.733L57.378 16.7832L55.6739 23.1136C55.375 24.2321 54.8467 25.2762 54.1227 26.1796C52.1295 25.4588 50.0258 25.0913 47.9062 25.0938H42.4426Z" fill="#1C1C1C"/>
</svg>
